<?xml version='1.0' encoding='utf-8'?>
<!-- Generator: imaengine 6.0   -->
<svg xmlns:xlink="http://www.w3.org/1999/xlink" xmlns="http://www.w3.org/2000/svg" viewBox="0,0,500,540" style="enable-background:new 0 0 500 540;" version="1.1">
<defs/>
<g id="layer0">
<path d="M0,0L500,0L500,540L0,540L0,0Z" fill="#FFFFFF"/>
<path d="M388,0L395,10C402,20 416,40 423.5,60C431,80 432,100 434.7,120C437.3,140 441.7,160 445.7,180C449.7,200 453.3,220 448.3,240C443.3,260 429.7,280 414,300C398.3,320 380.7,340 393.7,360C406.7,380 450.3,400 467.3,420C484.3,440 474.7,460 475.7,480C476.7,500 488.3,520 494.2,530L500,540L0,540L0,530C0,520 0,500 0,480C0,460 0,440 0,420C0,400 0,380 0,360C0,340 0,320 0,300C0,280 0,260 0,240C0,220 0,200 0,180C0,160 0,140 0,120C0,100 0,80 0,60C0,40 0,20 0,10L0,0L388,0Z" fill="#5E79D1"/>
<path d="M322,0L331.2,10C340.3,20 358.7,40 365.2,60C371.7,80 366.3,100 370.3,120C374.3,140 387.7,160 381,180C374.3,200 347.7,220 335,240C322.3,260 323.7,280 341.5,300C359.3,320 393.7,340 411,360C428.3,380 428.7,400 427,420C425.3,440 421.7,460 410,480C398.3,500 378.7,520 368.8,530L359,540L0,540L0,530C0,520 0,500 0,480C0,460 0,440 0,420C0,400 0,380 0,360C0,340 0,320 0,300C0,280 0,260 0,240C0,220 0,200 0,180C0,160 0,140 0,120C0,100 0,80 0,60C0,40 0,20 0,10L0,0L322,0Z" fill="#546DC9"/>
<path d="M387,0L379.5,10C372,20 357,40 344.5,60C332,80 322,100 331.2,120C340.3,140 368.7,160 363.7,180C358.7,200 320.3,220 309.5,240C298.7,260 315.3,280 334.5,300C353.7,320 375.3,340 381.8,360C388.3,380 379.7,400 370.3,420C361,440 351,460 349.2,480C347.3,500 353.7,520 356.8,530L360,540L0,540L0,530C0,520 0,500 0,480C0,460 0,440 0,420C0,400 0,380 0,360C0,340 0,320 0,300C0,280 0,260 0,240C0,220 0,200 0,180C0,160 0,140 0,120C0,100 0,80 0,60C0,40 0,20 0,10L0,0L387,0Z" fill="#4A61C0"/>
<path d="M261,0L262,10C263,20 265,40 270,60C275,80 283,100 288.8,120C294.7,140 298.3,160 294.3,180C290.3,200 278.7,220 277.2,240C275.7,260 284.3,280 294,300C303.7,320 314.3,340 319.3,360C324.3,380 323.7,400 314.5,420C305.3,440 287.7,460 287.3,480C287,500 304,520 312.5,530L321,540L0,540L0,530C0,520 0,500 0,480C0,460 0,440 0,420C0,400 0,380 0,360C0,340 0,320 0,300C0,280 0,260 0,240C0,220 0,200 0,180C0,160 0,140 0,120C0,100 0,80 0,60C0,40 0,20 0,10L0,0L261,0Z" fill="#4156B8"/>
<path d="M193,0L208.2,10C223.3,20 253.7,40 268.7,60C283.7,80 283.3,100 268.2,120C253,140 223,160 222.3,180C221.7,200 250.3,220 250.5,240C250.7,260 222.3,280 215,300C207.7,320 221.3,340 223.8,360C226.3,380 217.7,400 214.5,420C211.3,440 213.7,460 217.7,480C221.7,500 227.3,520 230.2,530L233,540L0,540L0,530C0,520 0,500 0,480C0,460 0,440 0,420C0,400 0,380 0,360C0,340 0,320 0,300C0,280 0,260 0,240C0,220 0,200 0,180C0,160 0,140 0,120C0,100 0,80 0,60C0,40 0,20 0,10L0,0L193,0Z" fill="#384AAF"/>
<path d="M172,0L180.8,10C189.7,20 207.3,40 217.7,60C228,80 231,100 230,120C229,140 224,160 224.2,180C224.3,200 229.7,220 219.5,240C209.3,260 183.7,280 170.3,300C157,320 156,340 159.3,360C162.7,380 170.3,400 184.2,420C198,440 218,460 223.3,480C228.7,500 219.3,520 214.7,530L210,540L0,540L0,530C0,520 0,500 0,480C0,460 0,440 0,420C0,400 0,380 0,360C0,340 0,320 0,300C0,280 0,260 0,240C0,220 0,200 0,180C0,160 0,140 0,120C0,100 0,80 0,60C0,40 0,20 0,10L0,0L172,0Z" fill="#2F3FA6"/>
<path d="M152,0L151.7,10C151.3,20 150.7,40 151.8,60C153,80 156,100 161.8,120C167.7,140 176.3,160 173.5,180C170.7,200 156.3,220 146.7,240C137,260 132,280 128.7,300C125.3,320 123.7,340 121,360C118.3,380 114.7,400 124.7,420C134.7,440 158.3,460 166.3,480C174.3,500 166.7,520 162.8,530L159,540L0,540L0,530C0,520 0,500 0,480C0,460 0,440 0,420C0,400 0,380 0,360C0,340 0,320 0,300C0,280 0,260 0,240C0,220 0,200 0,180C0,160 0,140 0,120C0,100 0,80 0,60C0,40 0,20 0,10L0,0L152,0Z" fill="#25339D"/>
<path d="M82,0L87.8,10C93.7,20 105.3,40 111.5,60C117.7,80 118.3,100 111,120C103.7,140 88.3,160 90.7,180C93,200 113,220 117.3,240C121.7,260 110.3,280 110.2,300C110,320 121,340 120.2,360C119.3,380 106.7,400 103,420C99.3,440 104.7,460 108.7,480C112.7,500 115.3,520 116.7,530L118,540L0,540L0,530C0,520 0,500 0,480C0,460 0,440 0,420C0,400 0,380 0,360C0,340 0,320 0,300C0,280 0,260 0,240C0,220 0,200 0,180C0,160 0,140 0,120C0,100 0,80 0,60C0,40 0,20 0,10L0,0L82,0Z" fill="#1B2793"/>
<path d="M60,0L57.2,10C54.3,20 48.7,40 48.5,60C48.3,80 53.7,100 53,120C52.3,140 45.7,160 45.8,180C46,200 53,220 52.7,240C52.3,260 44.7,280 41,300C37.3,320 37.7,340 40,360C42.3,380 46.7,400 47.7,420C48.7,440 46.3,460 50,480C53.7,500 63.3,520 68.2,530L73,540L0,540L0,530C0,520 0,500 0,480C0,460 0,440 0,420C0,400 0,380 0,360C0,340 0,320 0,300C0,280 0,260 0,240C0,220 0,200 0,180C0,160 0,140 0,120C0,100 0,80 0,60C0,40 0,20 0,10L0,0L60,0Z" fill="#0F1B8A"/>
</g>
</svg>
