<?xml version='1.0' encoding='utf-8'?>
<!-- Generator: imaengine 6.0   -->
<svg xmlns:xlink="http://www.w3.org/1999/xlink" xmlns="http://www.w3.org/2000/svg" viewBox="0,0,540,302" style="enable-background:new 0 0 540 302;" version="1.1">
<defs/>
<g id="layer0">
<path d="M0,302L12.8,297.5C25.7,293 51.3,284 77,280C102.7,276 128.3,277 154,279.5C179.7,282 205.3,286 231.2,290.2C257,294.3 283,298.7 308.8,296.7C334.7,294.7 360.3,286.3 386,270.3C411.7,254.3 437.3,230.7 463,226.7C488.7,222.7 514.3,238.3 527.2,246.2L540,254L540,0L527.2,0C514.3,0 488.7,0 463,0C437.3,0 411.7,0 386,0C360.3,0 334.7,0 308.8,0C283,0 257,0 231.2,0C205.3,0 179.7,0 154,0C128.3,0 102.7,0 77,0C51.3,0 25.7,0 12.8,0L0,0L0,302L0,302Z" fill="#5E79D1"/>
<path d="M0,172L12.8,178.2C25.7,184.3 51.3,196.7 77,200.3C102.7,204 128.3,199 154,203.5C179.7,208 205.3,222 231.2,230.3C257,238.7 283,241.3 308.8,230.2C334.7,219 360.3,194 386,189.5C411.7,185 437.3,201 463,205.8C488.7,210.7 514.3,204.3 527.2,201.2L540,198L540,0L527.2,0C514.3,0 488.7,0 463,0C437.3,0 411.7,0 386,0C360.3,0 334.7,0 308.8,0C283,0 257,0 231.2,0C205.3,0 179.7,0 154,0C128.3,0 102.7,0 77,0C51.3,0 25.7,0 12.8,0L0,0L0,172L0,172Z" fill="#4A61C0"/>
<path d="M0,168L12.8,174.7C25.7,181.3 51.3,194.7 77,192.3C102.7,190 128.3,172 154,158.2C179.7,144.3 205.3,134.7 231.2,140.8C257,147 283,169 308.8,172.2C334.7,175.3 360.3,159.7 386,159.5C411.7,159.3 437.3,174.7 463,174.7C488.7,174.7 514.3,159.3 527.2,151.7L540,144L540,0L527.2,0C514.3,0 488.7,0 463,0C437.3,0 411.7,0 386,0C360.3,0 334.7,0 308.8,0C283,0 257,0 231.2,0C205.3,0 179.7,0 154,0C128.3,0 102.7,0 77,0C51.3,0 25.7,0 12.8,0L0,0L0,168L0,168Z" fill="#384AAF"/>
<path d="M0,80L12.8,88.2C25.7,96.3 51.3,112.7 77,122.2C102.7,131.7 128.3,134.3 154,128.3C179.7,122.3 205.3,107.7 231.2,97C257,86.3 283,79.7 308.8,85.7C334.7,91.7 360.3,110.3 386,110C411.7,109.7 437.3,90.3 463,90.3C488.7,90.3 514.3,109.7 527.2,119.3L540,129L540,0L527.2,0C514.3,0 488.7,0 463,0C437.3,0 411.7,0 386,0C360.3,0 334.7,0 308.8,0C283,0 257,0 231.2,0C205.3,0 179.7,0 154,0C128.3,0 102.7,0 77,0C51.3,0 25.7,0 12.8,0L0,0L0,80L0,80Z" fill="#25339D"/>
<path d="M0,55L12.8,51.5C25.7,48 51.3,41 77,45.8C102.7,50.7 128.3,67.3 154,75.2C179.7,83 205.3,82 231.2,83.7C257,85.3 283,89.7 308.8,82C334.7,74.3 360.3,54.7 386,54.7C411.7,54.7 437.3,74.3 463,79.8C488.7,85.3 514.3,76.7 527.2,72.3L540,68L540,0L527.2,0C514.3,0 488.7,0 463,0C437.3,0 411.7,0 386,0C360.3,0 334.7,0 308.8,0C283,0 257,0 231.2,0C205.3,0 179.7,0 154,0C128.3,0 102.7,0 77,0C51.3,0 25.7,0 12.8,0L0,0L0,55L0,55Z" fill="#0F1B8A"/>
</g>
</svg>
